<?xml version="1.0" encoding="UTF-8"?>
<svg id="coralBanner1" xmlns="http://www.w3.org/2000/svg" viewBox="0 0 98.9 228.64">
  <defs>
    <style>
      .cls-1 {
        fill: none;
        stroke-linecap: round;
        stroke-linejoin: round;
        stroke-width: .72px;
      }

      .cls-1, .cls-2 {
        stroke: #570060;
      }

      .cls-2 {
        fill: #ffebde;
        stroke-miterlimit: 10;
        stroke-width: .79px;
      }
    </style>
  </defs>
  <path class="cls-2" d="M43.79,121.6c-1.2-8.11-12.93-10.67-15.33-18.51-1.43-4.67.98-9.66.7-14.54-.1-1.75-.53-3.58.16-5.19.52-1.2,1.58-2.07,2.3-3.16,1.42-2.17,1.35-4.97,2.15-7.43s3.43-4.86,5.75-3.71c.31-4.08,3.03-7.88,6.8-9.48.88-.37,1.86-.68,2.41-1.45.63-.89.5-2.12.97-3.11.71-1.49,2.52-2.01,3.96-2.83s2.65-2.82,1.51-4.02c-4.91,3.17-10.81,2.54-15.85-.42-4.21,4.58-10.17,7.07-15.92,9.43-2.8,1.15-5.6,2.3-8.41,3.45-4.66,1.91-11.04,3.36-13.87-.81-.53-.78-.86-1.74-.68-2.67.55-2.87,4.57-2.81,7.38-3.63,5.56-1.61,7.59-8.29,8.74-13.97,1.47-7.25,2.47-16.01-3.07-20.91,3.9,1.75,7.8,3.5,11.7,5.24.49.22,1.03.45,1.56.32.61-.15,1.01-.74,1.3-1.3,3.06-5.86.95-13.89-4.59-17.49,5.03.94,9.59,4.13,12.2,8.54,3.36.31,6.75-2.16,7.49-5.45s-1.25-6.97-4.41-8.14c3.4,1.62,6.17,4.52,7.64,7.99.37-2.19.27-4.45-.31-6.6,3.25,2.61,4.73,7.24,3.6,11.25,5.3-2.31,11.98-.96,15.96,3.24l2.89-5.77c.86,1.34.81,3.21-.12,4.51,1.27-1.76,2.55-3.52,3.82-5.28.36,3.53-.72,7.18-2.94,9.94,2.2-1.03,4.4-2.07,6.61-3.1-.53.98-1.05,1.95-1.58,2.93,2.81-1.67,6.15-2.44,9.41-2.18-.71,1.61-2.67,2.15-4.25,2.94-1.57.79-3.04,2.77-1.97,4.18.97,1.27,3.07.68,4.17-.48,1.1-1.15,1.76-2.73,3.07-3.64.88,2.05.19,4.67-1.6,6.01,1.59-.72,3.18-1.43,4.77-2.15.26,2.62-4.43,2.4-5.8,4.65-1,1.65.47,3.91,2.33,4.44s3.83-.12,5.66-.77c-.45,1.26-.9,2.53-1.34,3.79,2.67.82,5.8-.16,7.54-2.35.25,2.26-2.32,3.63-4.37,4.59-2.06.96-4.33,3.14-3.19,5.11.37-.69,1.53-.45,1.9.23s.23,1.53.07,2.29c1.76.68,3.95-.12,4.87-1.76-.45,2.19-1.45,4.26-2.88,5.96,2.18.27,4.47-.7,5.8-2.45.27,3.57-5.76,5.25-5.36,8.8.11,1.01.76,1.88,1.02,2.86s-.18,2.32-1.19,2.37c.7,1.44,2.65,2.1,4.07,1.38.17,2.06-2.23,3.22-4.13,4.01-1.91.79-4.05,2.74-3.03,4.53,1.71.3,3.41.6,5.12.9-2.77.68-4.98,3.21-5.29,6.04s1.32,5.78,3.87,7.03c-2.13.27-4.43.62-5.92,2.16-1.49,1.54-1.37,4.69.68,5.33-2.97,1.89-3,6.97-.05,8.9-5.17,2.28-6.34,10.41-2.01,14.05-2.43-.63-4.92,1.38-5.74,3.75s-.42,4.98-.01,7.46c-2.13-1.94-5.4.34-7.32,2.5-2.66,2.99-5.31,5.99-7.97,8.98,1.28,2.21,1.04,5.2-.58,7.17,4.63,13.35,11.07,22.03,19.51,33.37,5.05,6.78,9.5,14.73,7.93,23.03-.85,4.49-2.05,11.85-5.36,14.99-8.35,7.92-20.47,13.09-31.45,9.65-4.53-1.42-8.78-4.47-10.55-8.88-1.77-4.41-.4-10.18,3.74-12.5s10.46.33,10.89,5.06c.18,2.04-.81,4.24-2.66,5.11s-4.23-.55-4.83-2.51c-.6-1.95,1.28-3.75,3.21-3.08-1.1-1.68-3.63.23-3.87,2.23-1.27,1.53,6.26,13.15,20.38.95,3.65-3.15,3.98-7.55,4.31-12.36.67-9.76-8.46-18.86-15.34-25.82-22-22.24-15.57-30.4-16.77-53.76Z"/>
  <g>
    <path class="cls-1" d="M35.7,30.2l4.32-3.06c.76-.54,1.52-1.08,2.13-1.79,1.63-1.91,1.8-4.64,1.89-7.15,1.61.71,2.24,2.76,1.9,4.48-.35,1.72-1.44,3.18-2.51,4.57,1.37.13,2.77-.03,4.07-.45-.45,1.1-1.32,2.03-2.39,2.55.62.17,1.42.69,1.1,1.26-.09.16-.26.27-.42.36-.51.3-1.02.6-1.52.9.28.17.55.33.83.5-.7,1.07-2.47.42-3.54,1.12-.2.13-.38.31-.62.36-.16.03-.32,0-.48-.04-.66-.14-1.31-.28-1.97-.43"/>
    <path class="cls-1" d="M48.14,20.26c2.72-.25,5.39-1.11,7.74-2.5.57-.34,1.17-.72,1.83-.65.7.07,1.26.65,1.52,1.3s.27,1.37.28,2.07c.35-.45,1.15.07,1.11.63s-.55.97-1.03,1.28c.64.34,1.28.68,1.91,1.03-.87.66-1.86,1.18-2.9,1.51.43-.01.88.24.99.65s-.27.91-.68.82c.35.28.73.58.87,1s-.04,1-.48,1.09l.42.63c-2.26-.76-4.59-1.34-6.94-1.72,0,.52-.96.6-1.05.09"/>
    <path class="cls-1" d="M64.41,38.93c4.93.29,9.85.58,14.78.87-1.48-.4-2.67-.9-4-1.67.91-.67,1.9-1.23,2.95-1.66-1.04.1-2.1.02-3.11-.24.35-.74.85-1.41,1.46-1.96-.55-.14-1.27.74-1.53.24-.08-.16,0-.36.08-.53.23-.47.46-.94.69-1.42-2.79,1.79-8.22,5.16-11.32,6.36Z"/>
    <path class="cls-1" d="M87,94.29c2.57-.85,5.13-1.7,7.7-2.55-.54.77-1.09,1.54-1.63,2.31l2.9.15c-1.1,1.33-2.51,2.41-4.09,3.13.95.14,1.9.28,2.84.43-.94.5-1.76,1.23-2.37,2.11,1.7.74,3.4,1.48,5.1,2.22-1.08.25-2.16.49-3.23.74l2.43.78c-.64.23-1.28.47-1.92.7,1.13.63,2.27,1.26,3.4,1.89-.75-.05-1.51-.1-2.26-.16.36.38.73.77,1.09,1.15-1.48.43-2.97.85-4.45,1.28,1.17.74,2.33,1.48,3.5,2.21-1.07.67-2.22,1.19-3.42,1.56.59.27,1.11.71,1.49,1.25-.59.16-1.18.32-1.77.47,1,.61,1.94,1.33,2.78,2.14-.97.5-2.06.75-3.16.74.82.84,1.8,1.52,2.87,1.98-.7.1-1.41.19-2.11.29.41,1.1.45,2.85-.72,2.92-.53.03-1.19-.34-1.54.07-.38.45.23,1.05.39,1.62.3,1.09-1.19,1.83-2.3,1.66-1.11-.17-2.25-.76-3.31-.39,1.02.55,1.9,1.34,2.55,2.3-1.48-.04-2.97.28-4.31.92,1.79.73,2.65,3.15,1.72,4.84-1.99-1.74-3.79-3.7-5.36-5.84"/>
    <path class="cls-1" d="M74.42,41.8c2.15-.08,4.61-.04,6.02,1.59.17.2.33.43.35.7.05.7-.8,1.07-1.49,1.19-3.3.59-10.02.98-12.55-1.66,1.48-1.84,5.51-1.74,7.67-1.82Z"/>
    <path class="cls-1" d="M73.12,51.75c2.06.1,4.43.34,5.92,1.81.18.18.35.39.39.61.1.59-.69.82-1.34.87-3.12.23-9.56.02-12.2-2.38,1.28-1.41,5.16-1.01,7.23-.9Z"/>
    <path class="cls-1" d="M71.6,58.19c1.95.69,4.15,1.6,5.15,3.43.12.22.23.47.2.69-.07.59-.9.59-1.53.45-3.06-.68-9.16-2.73-11-5.78,1.63-.99,5.23.52,7.18,1.21Z"/>
    <path class="cls-1" d="M68.56,63.77c2.48.76,5.29,1.79,6.46,4.13.14.29.26.6.21.9-.14.79-1.21.85-2.04.71-3.94-.66-11.74-2.89-13.91-6.78,2.2-1.43,6.79.28,9.28,1.04Z"/>
    <path class="cls-1" d="M63.78,71.96c2.94,1.06,6.27,2.45,7.8,5.21.19.34.34.71.31,1.05-.1.89-1.34.88-2.31.66-4.62-1.05-13.83-4.19-16.64-8.81,2.44-1.47,7.89.83,10.84,1.89Z"/>
    <path class="cls-1" d="M60.11,78.86c3.47,1.12,7.39,2.61,9.07,5.88.21.4.37.84.31,1.25-.17,1.08-1.66,1.14-2.81.93-5.48-1.01-16.37-4.31-19.48-9.74,3.02-1.92,9.43.56,12.91,1.68Z"/>
    <path class="cls-1" d="M56.6,87.55c3.63.94,7.72,2.25,9.27,5.67.19.42.33.89.23,1.34-.27,1.19-1.88,1.38-3.09,1.24-5.8-.66-17.23-3.36-20.13-9.03,3.39-2.33,10.08-.15,13.72.79Z"/>
    <path class="cls-1" d="M52.44,97.59c3.24.57,6.86,1.45,7.99,4.5.14.37.23.8.1,1.22-.34,1.13-1.83,1.44-2.92,1.41-5.24-.13-15.45-1.7-17.62-6.72,3.29-2.45,9.21-.98,12.46-.4Z"/>
  </g>
  <path class="cls-1" d="M45.67,108.95c-.37-.1-.76-.2-1.14-.12-.8.17-1.2,1.16-1.03,1.96s.75,1.45,1.33,2.03c1.11,1.13,2.28,2.19,3.44,3.26.62.57,1.33,1.17,2.17,1.18.59,0,1.15-.29,1.65-.6,1.84-1.15,6.61-4.43,3.64-6.37-2.14-1.4-7.41-.63-10.06-1.33Z"/>
  <g>
    <path class="cls-1" d="M55.18,52.67c1.13-.53,2.31-.94,3.52-1.24.92-.23,2.22-.18,2.45.74.15.59-.28,1.16-.71,1.61-.64.67-1.35,1.32-2.22,1.63s-1.94.23-2.61-.42c-.81-.8-.67-2.34.28-2.97"/>
    <path class="cls-1" d="M51.3,58.56c1.13-.53,2.31-.94,3.52-1.24.92-.23,2.22-.18,2.45.74.15.59-.28,1.16-.71,1.61-.64.67-1.35,1.32-2.22,1.63s-1.94.23-2.61-.42c-.81-.8-.67-2.34.28-2.97"/>
    <path class="cls-1" d="M44.19,63.43c1.49-.36,3.06-.58,4.71-.67,1.25-.07,3.08.24,3.59,1.29.32.68-.17,1.22-.68,1.62-.77.61-1.65,1.17-2.81,1.35s-2.69-.13-3.75-.97c-1.3-1.03-1.39-2.69-.18-3.19"/>
    <path class="cls-1" d="M37.81,71.75c1.71-.5,3.51-.85,5.39-1.04,1.43-.14,3.49.14,4.01,1.39.34.81-.26,1.49-.85,2-.9.78-1.93,1.51-3.26,1.77s-3.05-.03-4.21-.99c-1.43-1.19-1.45-3.2-.05-3.87"/>
    <path class="cls-1" d="M35.49,77.39c1.62.75,3.2,1.67,4.74,2.76,1.17.83,2.54,2.41,2.1,3.69-.28.83-1.17.95-1.96.94-1.19-.01-2.44-.14-3.62-.82-1.18-.68-2.28-2.03-2.52-3.52-.29-1.84,1.01-3.36,2.51-2.94"/>
    <path class="cls-1" d="M33.75,87.94c1.15,1.36,2.2,2.87,3.13,4.51.71,1.25,1.28,3.25.35,4.24-.6.63-1.46.37-2.17.03-1.08-.51-2.16-1.16-2.94-2.27s-1.21-2.8-.79-4.26c.51-1.79,2.34-2.62,3.52-1.61"/>
    <path class="cls-1" d="M71.62,216.1c1.02,1.2,1.95,2.54,2.77,3.99.63,1.11,1.14,2.88.31,3.75-.53.56-1.29.32-1.92.02-.95-.45-1.91-1.02-2.6-2.01s-1.07-2.48-.7-3.77c.45-1.58,2.07-2.32,3.11-1.42"/>
    <path class="cls-1" d="M66.45,219.25c.82.96,1.56,2.03,2.22,3.19.5.89.91,2.31.25,3-.43.45-1.04.26-1.54.02-.76-.36-1.53-.82-2.08-1.61s-.86-1.99-.56-3.02c.36-1.27,1.66-1.86,2.5-1.14"/>
    <path class="cls-1" d="M62.08,220.51c.57,1.13,1.04,2.34,1.41,3.62.28.98.35,2.45-.46,2.98-.52.34-1.07.01-1.5-.34-.66-.53-1.3-1.15-1.65-2.05s-.37-2.13.16-3.07c.65-1.15,2.05-1.42,2.69-.53"/>
    <path class="cls-1" d="M57.29,220.25c.12,1.12.13,2.29.03,3.49-.07.91-.49,2.17-1.33,2.35-.54.12-.9-.33-1.15-.76-.38-.65-.72-1.38-.73-2.24s.37-1.9,1.1-2.52c.91-.76,2.17-.54,2.42.41"/>
    <path class="cls-1" d="M52.81,218.08c.12,1.12.13,2.29.03,3.49-.07.91-.49,2.17-1.33,2.35-.54.12-.9-.33-1.15-.76-.38-.65-.72-1.38-.73-2.24s.37-1.9,1.1-2.52c.91-.76,2.17-.54,2.42.41"/>
    <path class="cls-1" d="M50.92,215.46c-.46,1.03-1.03,2.05-1.71,3.04-.52.75-1.5,1.64-2.33,1.37-.53-.17-.62-.73-.62-1.23,0-.76.06-1.55.48-2.31s1.27-1.47,2.21-1.63c1.16-.2,2.15.61,1.9,1.57"/>
    <path class="cls-1" d="M49.53,212.64c-.65.51-1.37.97-2.14,1.37-.59.31-1.53.54-1.97.08-.28-.29-.14-.68.03-1.01.26-.49.57-.98,1.1-1.32s1.32-.51,1.99-.29c.82.27,1.17,1.13.68,1.66"/>
    <path class="cls-1" d="M50.47,210.1c-.81.14-1.66.21-2.54.2-.67,0-1.6-.25-1.78-.85-.11-.39.2-.67.5-.88.46-.31.97-.59,1.6-.64s1.4.17,1.89.68c.6.62.5,1.55-.18,1.78"/>
    <path class="cls-1" d="M54.11,208.14c-.81.14-1.66.21-2.54.2-.67,0-1.6-.25-1.78-.85-.11-.39.2-.67.5-.88.46-.31.97-.59,1.6-.64s1.4.17,1.89.68c.6.62.5,1.55-.18,1.78"/>
    <path class="cls-1" d="M56.01,213.67c-.13-.65-.2-1.31-.21-1.95,0-.49.18-1.1.68-1.01.32.06.56.39.74.69.27.45.51.93.57,1.42s-.12.98-.53,1.15c-.51.22-1.28-.19-1.49-.78"/>
    <path class="cls-1" d="M53.45,213.78c-.09-.53-.12-1.06-.11-1.59.01-.4.18-.9.59-.84.26.04.45.3.58.54.2.36.39.74.42,1.14s-.13.8-.47.96c-.42.19-1.04-.11-1.19-.59"/>
    <path class="cls-1" d="M57.37,210.06c-.55-.23-1.1-.52-1.66-.87-.42-.27-.97-.78-.94-1.24.01-.29.27-.35.51-.36.36-.02.75,0,1.16.21s.86.66,1.05,1.17c.24.63-.02,1.18-.51,1.06"/>
    <path class="cls-1" d="M66.95,106.9c2.52-.22,5.2-.22,7.97.02,2.12.18,5.17,1.08,5.94,2.86.5,1.14-.38,1.88-1.26,2.4-1.34.78-2.85,1.48-4.83,1.48-1.98,0-4.51-.82-6.23-2.38-2.11-1.92-2.15-4.56-.07-5.08"/>
    <path class="cls-1" d="M69.46,96.08c2.52-.22,5.2-.22,7.97.02,2.12.18,5.17,1.08,5.94,2.86.5,1.14-.38,1.88-1.26,2.4-1.34.78-2.85,1.48-4.83,1.48s-4.51-.82-6.23-2.38c-2.11-1.92-2.15-4.56-.07-5.08"/>
    <path class="cls-1" d="M73.1,86.39c2.08-.29,4.28-.38,6.54-.29,1.73.07,4.2.73,4.77,2.24.36.97-.38,1.64-1.13,2.12-1.13.73-2.4,1.38-4.02,1.46-1.62.08-3.68-.53-5.03-1.82-1.66-1.58-1.59-3.85.13-4.38"/>
    <path class="cls-1" d="M76.28,78.27c1.77-1.33,3.68-2.5,5.7-3.49,1.55-.75,3.9-1.2,4.78.25.57.93.08,2.05-.46,2.96-.81,1.38-1.77,2.74-3.18,3.61s-3.38,1.17-4.9.36c-1.87-1-2.38-3.63-.99-5.06"/>
    <path class="cls-1" d="M78.29,65.66c1.77-1.33,3.68-2.5,5.7-3.49,1.55-.75,3.9-1.2,4.78.25.57.93.08,2.05-.46,2.96-.81,1.38-1.77,2.74-3.18,3.61s-3.38,1.17-4.9.36c-1.87-1-2.38-3.63-.99-5.06"/>
    <path class="cls-1" d="M81,55.02c1.3-.98,2.7-1.84,4.19-2.56,1.14-.55,2.86-.88,3.51.18.42.68.06,1.5-.34,2.17-.6,1.01-1.3,2.01-2.33,2.65s-2.48.86-3.6.26c-1.37-.73-1.75-2.66-.73-3.71"/>
    <path class="cls-1" d="M79.06,48.48c1.3-.98,2.7-1.84,4.19-2.56,1.14-.55,2.86-.88,3.51.18.42.68.06,1.5-.34,2.17-.6,1.01-1.3,2.01-2.33,2.65s-2.48.86-3.6.26c-1.37-.73-1.75-2.66-.73-3.71"/>
    <path class="cls-1" d="M54.05,121.21c2.34.74,4.85,1.71,7.48,2.88,2.01.89,5.01,2.66,5.98,4.27.63,1.03-.09,1.27-.84,1.34-1.15.1-2.47.08-4.32-.63s-4.35-2.23-6.19-4.02c-2.26-2.2-2.67-4.18-.79-3.82"/>
    <path class="cls-1" d="M48,126.31c2.9.85,6.03,1.97,9.31,3.34,2.51,1.04,6.26,3.13,7.53,5.07.82,1.24-.05,1.55-.97,1.65-1.4.16-3.02.15-5.33-.67s-5.44-2.62-7.78-4.76c-2.87-2.63-3.46-5.04-1.14-4.64"/>
    <path class="cls-1" d="M46.97,137.8c2.69-.05,5.61.1,8.72.42,2.38.25,6.03,1.12,7.49,2.57.94.93.24,1.47-.55,1.83-1.19.55-2.61,1.02-4.77.93-2.16-.1-5.22-.88-7.65-2.21-2.98-1.63-3.93-3.72-1.84-4.03"/>
    <path class="cls-1" d="M46.63,145.72c2.81,0,5.88.21,9.15.6,2.5.3,6.34,1.24,7.9,2.73,1,.96.28,1.49-.54,1.84-1.24.53-2.71.98-4.98.84s-5.49-.99-8.06-2.37c-3.15-1.7-4.19-3.83-2-4.09"/>
    <path class="cls-1" d="M48.42,154.83c2.78-.44,5.85-.72,9.15-.85,2.52-.1,6.47.23,8.25,1.46,1.14.79.51,1.42-.24,1.9-1.14.72-2.53,1.4-4.79,1.61s-5.59-.11-8.35-1.08c-3.39-1.19-4.76-3.12-2.63-3.73"/>
    <path class="cls-1" d="M54.34,163.14c2.44-.52,5.12-.89,7.99-1.12,2.19-.17,5.63.04,7.14,1.2.97.75.4,1.4-.27,1.89-1.01.75-2.24,1.46-4.22,1.74s-4.86.06-7.24-.82c-2.92-1.08-4.05-2.96-2.18-3.62"/>
    <path class="cls-1" d="M59.96,170.37c2.44-.52,5.12-.89,7.99-1.12,2.19-.17,5.63.04,7.14,1.2.97.75.4,1.4-.27,1.89-1.01.75-2.24,1.46-4.22,1.74-1.98.28-4.86.06-7.24-.82-2.92-1.08-4.05-2.96-2.18-3.62"/>
    <path class="cls-1" d="M66.67,178.66c2.44-.52,5.12-.89,7.99-1.12,2.19-.17,5.63.04,7.14,1.2.97.75.4,1.4-.27,1.89-1.01.75-2.24,1.46-4.22,1.74s-4.86.06-7.24-.82c-2.92-1.08-4.05-2.96-2.18-3.62"/>
    <path class="cls-1" d="M73.05,186.52c2.44-.52,5.12-.89,7.99-1.12,2.19-.17,5.63.04,7.14,1.2.97.75.4,1.4-.27,1.89-1.01.75-2.24,1.46-4.22,1.74s-4.86.06-7.24-.82c-2.92-1.08-4.05-2.96-2.18-3.62"/>
    <path class="cls-1" d="M75.88,192.92c2.38-.28,5.01-.43,7.84-.46,2.16-.02,5.56.32,7.12,1.3,1,.63.47,1.11-.17,1.46-.96.53-2.14,1.02-4.08,1.14s-4.8-.21-7.19-1.01c-2.94-.99-4.15-2.51-2.34-2.92"/>
    <path class="cls-1" d="M77.2,198.5c2.35.17,4.93.49,7.7.94,2.11.35,5.42,1.2,6.86,2.28.93.69.38,1-.27,1.19-.98.28-2.17.49-4.08.26s-4.68-.98-6.96-2.05c-2.8-1.32-3.88-2.79-2.08-2.83"/>
    <path class="cls-1" d="M75.55,204.76c2.35.17,4.93.49,7.7.94,2.11.35,5.42,1.2,6.86,2.28.93.69.38,1-.27,1.19-.98.28-2.17.49-4.08.26-1.91-.23-4.68-.98-6.96-2.05-2.8-1.32-3.88-2.79-2.08-2.83"/>
    <path class="cls-1" d="M74.87,210.49c2.23.13,4.68.4,7.31.8,2,.31,5.13,1.1,6.49,2.14.87.67.34.99-.28,1.18-.94.3-2.07.52-3.88.33s-4.43-.89-6.58-1.91c-2.64-1.26-3.64-2.7-1.92-2.77"/>
    <path class="cls-1" d="M72.72,212.63c1.72.84,3.58,1.86,5.52,3.05,1.49.91,3.7,2.57,4.43,3.84.47.82-.05.89-.61.84-.84-.08-1.81-.27-3.18-1.02s-3.22-2.17-4.58-3.69c-1.68-1.87-2-3.34-.61-2.83"/>
    <path class="cls-1" d="M60.19,115.13c2.64.39,5.44,1.03,8.33,1.92,2.21.68,5.38,2.27,6.15,4.16.49,1.22-.43,1.72-1.37,2.01-1.42.44-3.01.74-5.08.28s-4.7-1.86-6.47-3.78c-2.17-2.35-2.15-4.9.03-4.9"/>
  </g>
  <circle class="cls-1" cx="26.6" cy="38.69" r="5.14"/>
  <circle class="cls-1" cx="26.6" cy="38.69" r="2.94"/>
  <circle class="cls-1" cx="26.6" cy="38.69" r="1.37"/>
</svg>